<?xml version="1.0" encoding="UTF-8"?>
<svg xmlns="http://www.w3.org/2000/svg" xmlns:xlink="http://www.w3.org/1999/xlink" width="300px" height="300px" viewBox="0 0 300 300" version="1.1">
<g id="surface1">
<path style=" stroke:none;fill-rule:nonzero;fill:rgb(63.137257%,15.294118%,40.392157%);fill-opacity:1;" d="M 185.5 0 C 186.289062 0.0742188 187.082031 0.152344 187.871094 0.234375 C 188.53125 0.300781 188.53125 0.300781 189.203125 0.367188 C 191.160156 0.683594 192.761719 1.507812 194.5 2.554688 C 194.84375 2.757812 195.183594 2.960938 195.539062 3.171875 C 201.542969 6.917969 205.457031 12.839844 207.625 20.226562 C 209.015625 25.863281 209.5 31.574219 209.5 37.429688 C 226.496094 37.429688 243.488281 37.429688 261 37.429688 C 261 34.769531 261 32.109375 261 29.367188 C 261.945312 19.296875 264.996094 11.144531 271.734375 4.488281 C 274.851562 1.945312 278.265625 0.675781 282 0 C 282.0625 21.992188 282.128906 43.980469 282.191406 65.972656 C 282.199219 68.589844 282.207031 71.203125 282.214844 73.820312 C 282.214844 74.339844 282.214844 74.859375 282.21875 75.394531 C 282.242188 83.746094 282.265625 92.097656 282.289062 100.449219 C 282.316406 109.0625 282.339844 117.675781 282.367188 126.292969 C 282.378906 130.640625 282.390625 134.992188 282.402344 139.34375 C 282.40625 140.277344 282.410156 141.214844 282.410156 142.148438 C 282.417969 144.441406 282.425781 146.738281 282.433594 149.03125 C 282.445312 153.40625 282.457031 157.78125 282.453125 162.15625 C 282.453125 163.824219 282.453125 165.492188 282.453125 167.160156 C 282.453125 167.5625 282.453125 167.96875 282.453125 168.386719 C 282.457031 173.527344 282.53125 178.65625 282.6875 183.792969 C 282.773438 186.695312 282.832031 189.601562 282.890625 192.503906 C 282.925781 193.835938 282.972656 195.164062 283.035156 196.496094 C 283.480469 206.21875 283.480469 206.21875 281.820312 209.011719 C 279.964844 211.242188 277.820312 212.695312 275.5 214.203125 C 274.304688 215.332031 273.210938 216.535156 272.125 217.800781 C 271.859375 218.109375 271.597656 218.417969 271.324219 218.734375 C 261.449219 230.640625 256.882812 246.726562 256.9375 262.96875 C 256.9375 263.542969 256.933594 264.117188 256.929688 264.710938 C 256.9375 269.011719 257.167969 273.261719 257.5 277.542969 C 257.792969 277.539062 258.082031 277.535156 258.382812 277.53125 C 261.449219 277.492188 264.515625 277.46875 267.582031 277.449219 C 268.722656 277.441406 269.863281 277.429688 271.003906 277.414062 C 288.445312 277.1875 288.445312 277.1875 294 282.726562 C 297.582031 287.402344 298.5 293.9375 298.5 300 C 258.40625 300 218.308594 300 177 300 C 176.503906 295.820312 176.011719 291.640625 175.5 287.332031 C 173.726562 279.839844 171.246094 273.371094 165.5 268.90625 C 158.441406 264.335938 149.882812 264.675781 142 264.300781 C 142.085938 263.933594 142.171875 263.570312 142.257812 263.195312 C 147.398438 241.09375 147.132812 220.183594 138.5 199.230469 C 138.148438 198.367188 138.148438 198.367188 137.789062 197.488281 C 137.085938 195.902344 136.320312 194.40625 135.5 192.898438 C 135.3125 192.554688 135.125 192.207031 134.929688 191.851562 C 131.089844 184.90625 126.417969 179.253906 121.230469 173.605469 C 120.5 172.746094 120.5 172.746094 120.5 172.167969 C 120.96875 172.164062 120.96875 172.164062 121.445312 172.160156 C 124.738281 172.121094 128.035156 172.074219 131.328125 172.019531 C 132.550781 172 133.773438 171.984375 135 171.96875 C 149.835938 171.804688 163.3125 170.097656 174.5625 157.761719 C 179.371094 151.941406 182.253906 144.746094 184 137.042969 C 184.085938 136.664062 184.171875 136.28125 184.261719 135.886719 C 185.386719 130.007812 185.15625 123.980469 185.160156 117.992188 C 185.164062 116.703125 185.167969 115.414062 185.175781 114.125 C 185.1875 110.640625 185.195312 107.15625 185.203125 103.671875 C 185.210938 100.027344 185.222656 96.378906 185.238281 92.734375 C 185.257812 86.617188 185.273438 80.503906 185.289062 74.386719 C 185.304688 68.089844 185.320312 61.792969 185.339844 55.496094 C 185.34375 55.109375 185.34375 54.71875 185.34375 54.320312 C 185.351562 52.367188 185.359375 50.417969 185.363281 48.46875 C 185.414062 32.3125 185.460938 16.15625 185.5 0 Z M 196.78125 62.332031 C 194.898438 65.230469 193.8125 68.027344 194.03125 71.6875 C 194.597656 75.640625 195.769531 78.414062 198.5625 80.867188 C 201.746094 83.40625 204.664062 83.40625 208.5 82.917969 C 211.425781 81.621094 213.558594 79.277344 215.0625 76.125 C 216.136719 73.011719 216.367188 69.890625 215.46875 66.6875 C 213.898438 62.671875 211.6875 60.125 208.109375 58.539062 C 204.074219 57.15625 199.621094 58.777344 196.78125 62.332031 Z M 252.21875 63.410156 C 250.265625 66.683594 250.175781 69.828125 250.5 73.703125 C 251.386719 77.304688 253.367188 79.675781 256 81.765625 C 258.4375 83.320312 260.796875 83.777344 263.53125 83.097656 C 267.277344 81.839844 269.722656 79.101562 271.65625 75.289062 C 272.589844 70.988281 272.210938 67.382812 270.347656 63.496094 C 268.542969 60.714844 265.964844 58.808594 263 58.15625 C 258.605469 57.632812 254.949219 59.324219 252.21875 63.410156 Z M 233 62.1875 C 232.535156 63.003906 232.09375 63.835938 231.65625 64.671875 C 229.953125 67.800781 228.101562 70.773438 226.1875 73.742188 C 225.886719 74.207031 225.585938 74.671875 225.277344 75.152344 C 224.660156 76.109375 224.042969 77.066406 223.425781 78.023438 C 213.40625 92.492188 213.40625 92.492188 211.25 110.195312 C 212.628906 117.519531 216.085938 123.542969 221.46875 127.722656 C 226.335938 131 232.082031 132.195312 237.609375 130.914062 C 244.339844 128.753906 249.039062 124.851562 252.65625 117.941406 C 255.441406 111.871094 255.953125 104.625 254.40625 97.996094 C 252.808594 93.207031 249.992188 89.09375 247.410156 84.957031 C 246.207031 83.023438 245.027344 81.070312 243.847656 79.113281 C 242.691406 77.203125 241.527344 75.300781 240.363281 73.394531 C 239.488281 71.957031 238.613281 70.515625 237.742188 69.074219 C 237.191406 68.171875 236.644531 67.265625 236.09375 66.363281 C 235.839844 65.941406 235.582031 65.519531 235.320312 65.082031 C 234.726562 64.109375 234.117188 63.144531 233.5 62.1875 C 233.335938 62.1875 233.171875 62.1875 233 62.1875 Z M 233 62.1875 "/>
<path style=" stroke:none;fill-rule:nonzero;fill:rgb(48.235294%,11.372549%,30.588236%);fill-opacity:1;" d="M 15 173.894531 C 17.414062 176.378906 18.871094 179 19.140625 182.769531 C 19.144531 183.519531 19.152344 184.269531 19.160156 185.042969 C 19.164062 185.460938 19.167969 185.875 19.175781 186.304688 C 19.191406 187.671875 19.199219 189.039062 19.207031 190.410156 C 19.214844 191.359375 19.226562 192.3125 19.238281 193.261719 C 19.261719 195.761719 19.28125 198.257812 19.300781 200.757812 C 19.320312 203.308594 19.347656 205.859375 19.371094 208.410156 C 19.417969 213.414062 19.460938 218.414062 19.5 223.417969 C 19.632812 222.875 19.761719 222.332031 19.898438 221.773438 C 20.074219 221.054688 20.25 220.335938 20.429688 219.597656 C 20.691406 218.535156 20.691406 218.535156 20.957031 217.449219 C 24.96875 202.019531 34.28125 188.222656 46.496094 180.269531 C 60.015625 171.984375 75.132812 169.902344 89.914062 174.488281 C 104.894531 179.828125 116.640625 191.429688 124.085938 207.257812 C 127.640625 215.1875 129.808594 224.253906 130 233.207031 C 130.023438 233.652344 130.050781 234.101562 130.078125 234.5625 C 130.605469 250.296875 125.449219 265.402344 117 277.542969 C 116.171875 278.507812 115.339844 279.46875 114.5 280.421875 C 115 280.425781 115.496094 280.425781 116.011719 280.429688 C 120.71875 280.449219 125.425781 280.484375 130.132812 280.527344 C 132.554688 280.550781 134.972656 280.570312 137.394531 280.578125 C 139.730469 280.585938 142.070312 280.605469 144.40625 280.632812 C 145.296875 280.644531 146.1875 280.648438 147.078125 280.648438 C 148.328125 280.648438 149.578125 280.664062 150.828125 280.683594 C 151.191406 280.679688 151.558594 280.679688 151.933594 280.675781 C 154.636719 280.738281 156.730469 281.59375 159 283.300781 C 162.027344 287.257812 163.054688 291.839844 163.019531 296.980469 C 163.015625 297.546875 163.015625 298.113281 163.011719 298.695312 C 163.007812 299.125 163.003906 299.558594 163 300 C 143.195312 300.050781 123.390625 300.09375 103.582031 300.117188 C 101.246094 300.121094 98.90625 300.125 96.570312 300.125 C 96.105469 300.128906 95.636719 300.128906 95.160156 300.128906 C 87.621094 300.136719 80.085938 300.15625 72.546875 300.175781 C 64.8125 300.199219 57.078125 300.210938 49.34375 300.214844 C 44.574219 300.21875 39.800781 300.230469 35.027344 300.25 C 31.757812 300.261719 28.484375 300.265625 25.210938 300.261719 C 23.324219 300.261719 21.433594 300.261719 19.546875 300.273438 C 17.5 300.289062 15.453125 300.285156 13.402344 300.277344 C 12.511719 300.285156 12.511719 300.285156 11.597656 300.296875 C 7.84375 300.265625 4.875 299.828125 2.078125 296.652344 C 1.898438 296.320312 1.71875 295.988281 1.53125 295.644531 C 1.339844 295.3125 1.152344 294.980469 0.953125 294.636719 C -0.140625 292.300781 -0.0742188 290.074219 -0.078125 287.5 C -0.078125 287.042969 -0.0820312 286.585938 -0.0820312 286.113281 C -0.0898438 284.578125 -0.09375 283.042969 -0.0976562 281.507812 C -0.101562 280.410156 -0.105469 279.308594 -0.109375 278.210938 C -0.121094 274.597656 -0.128906 270.984375 -0.136719 267.371094 C -0.140625 266.125 -0.140625 264.882812 -0.144531 263.636719 C -0.15625 258.464844 -0.164062 253.289062 -0.171875 248.117188 C -0.179688 240.699219 -0.195312 233.285156 -0.222656 225.867188 C -0.242188 220.652344 -0.253906 215.441406 -0.253906 210.226562 C -0.257812 207.113281 -0.261719 203.996094 -0.28125 200.882812 C -0.292969 197.953125 -0.296875 195.023438 -0.292969 192.089844 C -0.292969 191.015625 -0.296875 189.941406 -0.304688 188.867188 C -0.382812 178.773438 -0.382812 178.773438 2.5 175.046875 C 6.285156 171.578125 10.734375 171.058594 15 173.894531 Z M 15 173.894531 "/>
<path style=" stroke:none;fill-rule:nonzero;fill:rgb(83.529413%,25.490198%,47.058824%);fill-opacity:1;" d="M 185.5 0 C 186.289062 0.0742188 187.082031 0.152344 187.871094 0.234375 C 188.3125 0.277344 188.75 0.320312 189.203125 0.367188 C 191.160156 0.683594 192.761719 1.507812 194.5 2.554688 C 194.84375 2.757812 195.183594 2.960938 195.539062 3.171875 C 201.542969 6.917969 205.457031 12.839844 207.625 20.226562 C 209.015625 25.863281 209.5 31.574219 209.5 37.429688 C 226.496094 37.429688 243.488281 37.429688 261 37.429688 C 261 34.769531 261 32.109375 261 29.367188 C 261.945312 19.296875 264.996094 11.144531 271.734375 4.488281 C 274.875 1.925781 278.238281 0.722656 282 0 C 282 56.816406 282 113.632812 282 172.167969 C 251.019531 172.53125 220.054688 172.828125 189.074219 172.785156 C 184.613281 172.777344 180.152344 172.777344 175.691406 172.773438 C 165.628906 172.769531 155.5625 172.757812 145.5 172.746094 C 147.335938 171.335938 149.023438 171.175781 151.15625 170.835938 C 161.527344 169.003906 171.109375 163.578125 177.5 153.742188 C 180.523438 148.503906 182.621094 143.140625 184 137.042969 C 184.085938 136.664062 184.171875 136.28125 184.261719 135.886719 C 185.386719 130.007812 185.15625 123.980469 185.160156 117.992188 C 185.164062 116.703125 185.167969 115.414062 185.175781 114.125 C 185.1875 110.640625 185.195312 107.15625 185.203125 103.671875 C 185.210938 100.027344 185.222656 96.378906 185.238281 92.734375 C 185.257812 86.617188 185.273438 80.503906 185.289062 74.386719 C 185.304688 68.089844 185.320312 61.792969 185.339844 55.496094 C 185.34375 55.109375 185.34375 54.71875 185.34375 54.320312 C 185.351562 52.367188 185.359375 50.417969 185.363281 48.46875 C 185.414062 32.3125 185.460938 16.15625 185.5 0 Z M 196.78125 62.332031 C 194.898438 65.230469 193.8125 68.027344 194.03125 71.6875 C 194.597656 75.640625 195.769531 78.414062 198.5625 80.867188 C 201.746094 83.40625 204.664062 83.40625 208.5 82.917969 C 211.425781 81.621094 213.558594 79.277344 215.0625 76.125 C 216.136719 73.011719 216.367188 69.890625 215.46875 66.6875 C 213.898438 62.671875 211.6875 60.125 208.109375 58.539062 C 204.074219 57.15625 199.621094 58.777344 196.78125 62.332031 Z M 252.21875 63.410156 C 250.265625 66.683594 250.175781 69.828125 250.5 73.703125 C 251.386719 77.304688 253.367188 79.675781 256 81.765625 C 258.4375 83.320312 260.796875 83.777344 263.53125 83.097656 C 267.277344 81.839844 269.722656 79.101562 271.65625 75.289062 C 272.589844 70.988281 272.210938 67.382812 270.347656 63.496094 C 268.542969 60.714844 265.964844 58.808594 263 58.15625 C 258.605469 57.632812 254.949219 59.324219 252.21875 63.410156 Z M 233 62.1875 C 232.535156 63.003906 232.09375 63.835938 231.65625 64.671875 C 229.953125 67.800781 228.101562 70.773438 226.1875 73.742188 C 225.886719 74.207031 225.585938 74.671875 225.277344 75.152344 C 224.660156 76.109375 224.042969 77.066406 223.425781 78.023438 C 213.40625 92.492188 213.40625 92.492188 211.25 110.195312 C 212.628906 117.519531 216.085938 123.542969 221.46875 127.722656 C 226.335938 131 232.082031 132.195312 237.609375 130.914062 C 244.339844 128.753906 249.039062 124.851562 252.65625 117.941406 C 255.441406 111.871094 255.953125 104.625 254.40625 97.996094 C 252.808594 93.207031 249.992188 89.09375 247.410156 84.957031 C 246.207031 83.023438 245.027344 81.070312 243.847656 79.113281 C 242.691406 77.203125 241.527344 75.300781 240.363281 73.394531 C 239.488281 71.957031 238.613281 70.515625 237.742188 69.074219 C 237.191406 68.171875 236.644531 67.265625 236.09375 66.363281 C 235.839844 65.941406 235.582031 65.519531 235.320312 65.082031 C 234.726562 64.109375 234.117188 63.144531 233.5 62.1875 C 233.335938 62.1875 233.171875 62.1875 233 62.1875 Z M 233 62.1875 "/>
<path style=" stroke:none;fill-rule:nonzero;fill:rgb(77.64706%,21.176471%,49.019608%);fill-opacity:1;" d="M 282 0 C 282 56.816406 282 113.632812 282 172.167969 C 265.828125 172.167969 249.660156 172.167969 233 172.167969 C 233 158.675781 233 145.1875 233 131.285156 C 235.308594 130.714844 237.621094 130.144531 240 129.558594 C 246.160156 126.421875 250.175781 123.003906 253.164062 115.878906 C 255.214844 109.757812 255.410156 102.496094 253.351562 96.328125 C 251.539062 92.292969 249.207031 88.640625 246.910156 84.957031 C 245.703125 83.015625 244.519531 81.058594 243.335938 79.097656 C 242.523438 77.753906 241.707031 76.410156 240.890625 75.066406 C 240.609375 74.59375 240.332031 74.125 240.046875 73.636719 C 239.21875 72.324219 238.375 71.125 237.460938 69.898438 C 232.605469 63.132812 232.234375 57.777344 232.625 49.195312 C 232.75 45.3125 232.871094 41.429688 233 37.429688 C 242.238281 37.429688 251.480469 37.429688 261 37.429688 C 261 34.769531 261 32.109375 261 29.367188 C 261.945312 19.292969 264.996094 11.152344 271.734375 4.488281 C 274.527344 2.210938 278.484375 0 282 0 Z M 252.21875 63.410156 C 250.265625 66.683594 250.175781 69.828125 250.5 73.703125 C 251.386719 77.304688 253.367188 79.675781 256 81.765625 C 258.4375 83.320312 260.796875 83.777344 263.53125 83.097656 C 267.277344 81.839844 269.722656 79.101562 271.65625 75.289062 C 272.589844 70.988281 272.210938 67.382812 270.347656 63.496094 C 268.542969 60.714844 265.964844 58.808594 263 58.15625 C 258.605469 57.632812 254.949219 59.324219 252.21875 63.410156 Z M 252.21875 63.410156 "/>
<path style=" stroke:none;fill-rule:nonzero;fill:rgb(52.156866%,11.372549%,32.156864%);fill-opacity:1;" d="M 233 172.167969 C 249.171875 172.167969 265.339844 172.167969 282 172.167969 C 282.648438 178.140625 282.820312 184.046875 282.921875 190.058594 C 282.953125 191.492188 282.996094 192.925781 283.054688 194.359375 C 283.515625 205.957031 283.515625 205.957031 281.84375 209.105469 C 280.027344 211.386719 277.84375 212.753906 275.5 214.203125 C 274.414062 215.175781 274.414062 215.175781 273.570312 216.15625 C 273.324219 216.429688 273.078125 216.699219 272.828125 216.980469 C 272.59375 217.253906 272.363281 217.523438 272.125 217.800781 C 271.730469 218.265625 271.730469 218.265625 271.324219 218.734375 C 261.460938 230.628906 256.882812 246.707031 256.9375 262.933594 C 256.9375 263.503906 256.933594 264.074219 256.929688 264.660156 C 256.9375 269.195312 257.21875 273.570312 257.5 278.117188 C 249.414062 278.117188 241.328125 278.117188 233 278.117188 C 233 243.15625 233 208.191406 233 172.167969 Z M 233 172.167969 "/>
<path style=" stroke:none;fill-rule:nonzero;fill:rgb(77.64706%,11.372549%,45.882353%);fill-opacity:1;" d="M 173 277.542969 C 187.089844 277.503906 201.183594 277.472656 215.273438 277.453125 C 221.816406 277.445312 228.359375 277.433594 234.902344 277.414062 C 240.605469 277.394531 246.3125 277.382812 252.015625 277.378906 C 255.035156 277.378906 258.054688 277.375 261.074219 277.359375 C 263.917969 277.347656 266.765625 277.34375 269.609375 277.347656 C 270.652344 277.347656 271.691406 277.34375 272.730469 277.335938 C 288.5 277.242188 288.5 277.242188 294 282.726562 C 297.582031 287.402344 298.5 293.9375 298.5 300 C 258.40625 300 218.308594 300 177 300 C 176.503906 295.820312 176.011719 291.640625 175.5 287.332031 C 174.558594 283.769531 174.558594 283.769531 173.492188 280.25 C 173 278.695312 173 278.695312 173 277.542969 Z M 173 277.542969 "/>
<path style=" stroke:none;fill-rule:nonzero;fill:rgb(81.960785%,28.627452%,56.470591%);fill-opacity:1;" d="M 173 277.542969 C 192.800781 277.542969 212.601562 277.542969 233 277.542969 C 234.273438 284.886719 233.5 292.511719 233.5 300 C 214.855469 300 196.210938 300 177 300 C 176.503906 295.820312 176.011719 291.640625 175.5 287.332031 C 174.558594 283.769531 174.558594 283.769531 173.492188 280.25 C 173 278.695312 173 278.695312 173 277.542969 Z M 173 277.542969 "/>
<path style=" stroke:none;fill-rule:nonzero;fill:rgb(77.64706%,11.372549%,45.490196%);fill-opacity:1;" d="M 117.585938 280.632812 C 117.984375 280.628906 118.382812 280.625 118.796875 280.621094 C 120.105469 280.613281 121.417969 280.625 122.730469 280.636719 C 123.648438 280.636719 124.5625 280.632812 125.480469 280.632812 C 127.398438 280.628906 129.316406 280.636719 131.238281 280.65625 C 133.691406 280.675781 136.140625 280.671875 138.59375 280.660156 C 140.488281 280.652344 142.378906 280.660156 144.273438 280.667969 C 145.175781 280.671875 146.078125 280.671875 146.984375 280.667969 C 148.25 280.664062 149.515625 280.675781 150.785156 280.691406 C 151.152344 280.6875 151.523438 280.683594 151.902344 280.679688 C 154.621094 280.738281 156.71875 281.582031 159 283.300781 C 162.820312 288.296875 163 293.53125 163 300 C 135.113281 300 107.230469 300 78.5 300 C 78.5 299.808594 78.5 299.621094 78.5 299.425781 C 79.046875 299.339844 79.589844 299.253906 80.152344 299.167969 C 92.160156 297.171875 103.0625 292.296875 111.820312 282.382812 C 113.605469 280.683594 115.335938 280.59375 117.585938 280.632812 Z M 117.585938 280.632812 "/>
<path style=" stroke:none;fill-rule:nonzero;fill:rgb(81.960785%,28.627452%,56.470591%);fill-opacity:1;" d="M 186 0 C 189.429688 0.4375 191.554688 0.820312 194.46875 2.554688 C 194.8125 2.757812 195.160156 2.960938 195.511719 3.171875 C 201.679688 6.992188 205.566406 13.015625 207.65625 20.621094 C 209.203125 26.789062 209 30.945312 209 38.003906 C 201.410156 38.003906 193.820312 38.003906 186 38.003906 C 186 25.460938 186 12.921875 186 0 Z M 186 0 "/>
<path style=" stroke:none;fill-rule:nonzero;fill:rgb(81.960785%,28.627452%,56.470591%);fill-opacity:1;" d="M 281.5 0.574219 C 281.5 12.738281 281.5 24.898438 281.5 37.429688 C 274.898438 37.429688 268.300781 37.429688 261.5 37.429688 C 261.304688 25.65625 261.886719 15.96875 269.320312 7.019531 C 272.808594 3.285156 276.644531 0.574219 281.5 0.574219 Z M 281.5 0.574219 "/>
<path style=" stroke:none;fill-rule:nonzero;fill:rgb(48.235294%,11.764706%,30.588236%);fill-opacity:1;" d="M 237.179688 95.550781 C 239.671875 97.273438 241.5625 99.253906 242.5 102.496094 C 242.832031 106.789062 242.820312 109.964844 240.5 113.4375 C 237.78125 116.40625 235.386719 117.136719 231.714844 117.035156 C 228.761719 116.683594 226.855469 114.828125 225 112.285156 C 223.660156 109.460938 222.972656 106.839844 223.5 103.648438 C 224.640625 99.929688 225.90625 97.367188 229 95.585938 C 231.625 94.578125 234.574219 94.355469 237.179688 95.550781 Z M 237.179688 95.550781 "/>
<path style=" stroke:none;fill-rule:nonzero;fill:rgb(78.039217%,20.784314%,46.27451%);fill-opacity:1;" d="M 151.859375 171.296875 C 153.347656 171.683594 154.75 171.675781 156.277344 171.683594 C 156.769531 171.6875 156.769531 171.6875 157.273438 171.691406 C 158.371094 171.703125 159.472656 171.707031 160.570312 171.710938 C 161.359375 171.71875 162.148438 171.722656 162.9375 171.730469 C 165.078125 171.746094 167.21875 171.757812 169.355469 171.769531 C 171.59375 171.78125 173.832031 171.796875 176.066406 171.8125 C 180.304688 171.839844 184.539062 171.867188 188.773438 171.890625 C 193.597656 171.917969 198.417969 171.949219 203.242188 171.984375 C 213.160156 172.046875 223.082031 172.109375 233 172.167969 C 233 172.359375 233 172.550781 233 172.746094 C 204.125 172.746094 175.25 172.746094 145.5 172.746094 C 147.351562 171.320312 149.652344 170.578125 151.859375 171.296875 Z M 151.859375 171.296875 "/>
</g>
</svg>
